HIERARCHY
ROOT Hips
{
	OFFSET 0.000000 0.000000 0.000000
	CHANNELS 6 Xposition Yposition Zposition Xrotation Yrotation Zrotation
	JOINT Chest
	{
		OFFSET 0.000000 9.585900 0.002600
		CHANNELS 3 Xrotation Yrotation Zrotation
		JOINT Chest2
		{
			OFFSET 0.000000 9.601200 -0.005300
			CHANNELS 3 Xrotation Yrotation Zrotation
			JOINT Chest3
			{
				OFFSET 0.000000 9.561800 0.000000
				CHANNELS 3 Xrotation Yrotation Zrotation
				JOINT Chest4
				{
					OFFSET 0.000000 9.552100 0.000000
					CHANNELS 3 Xrotation Yrotation Zrotation
					JOINT Neck
					{
						OFFSET 0.000000 14.453000 0.000000
						CHANNELS 3 Xrotation Yrotation Zrotation
						JOINT Head
						{
							OFFSET 0.000000 8.936500 -0.011300
							CHANNELS 3 Xrotation Yrotation Zrotation
							End Site
							{
								OFFSET 0.000000 0.000000 0.000000
							}
						}
					}
					JOINT RightCollar
					{
						OFFSET -2.921100 9.558500 0.000000
						CHANNELS 3 Xrotation Yrotation Zrotation
						JOINT RightShoulder
						{
							OFFSET -13.519700 0.000000 0.000000
							CHANNELS 3 Xrotation Yrotation Zrotation
							JOINT RightElbow
							{
								OFFSET 0.000000 -29.696600 0.000000
								CHANNELS 3 Xrotation Yrotation Zrotation
								JOINT RightWrist
								{
									OFFSET 0.000000 -24.004700 0.000000
									CHANNELS 3 Xrotation Yrotation Zrotation
									End Site
									{
										OFFSET 0.000000 0.000000 0.000000
									}
								}
							}
						}
					}
					JOINT LeftCollar
					{
						OFFSET 2.921100 9.558500 0.000000
						CHANNELS 3 Xrotation Yrotation Zrotation
						JOINT LeftShoulder
						{
							OFFSET 13.519700 0.000000 0.000000
							CHANNELS 3 Xrotation Yrotation Zrotation
							JOINT LeftElbow
							{
								OFFSET 0.000000 -29.696600 0.000000
								CHANNELS 3 Xrotation Yrotation Zrotation
								JOINT LeftWrist
								{
									OFFSET 0.000000 -24.004700 0.000000
									CHANNELS 3 Xrotation Yrotation Zrotation
									End Site
									{
										OFFSET 0.000000 0.000000 0.000000
									}
								}
							}
						}
					}
				}
			}
		}
	}
	JOINT RightHip
	{
		OFFSET -7.771700 -0.012900 -0.001300
		CHANNELS 3 Xrotation Yrotation Zrotation
		JOINT RightKnee
		{
			OFFSET 0.000000 -40.869801 0.001200
			CHANNELS 3 Xrotation Yrotation Zrotation
			JOINT RightAnkle
			{
				OFFSET 0.000000 -39.717899 0.002100
				CHANNELS 3 Xrotation Yrotation Zrotation
				JOINT RightToe
				{
					OFFSET 0.000000 -4.965400 11.033500
					CHANNELS 3 Xrotation Yrotation Zrotation
					End Site
					{
						OFFSET 0.000000 0.000000 0.000000
					}
				}
			}
		}
	}
	JOINT LeftHip
	{
		OFFSET 7.771700 -0.012900 -0.001300
		CHANNELS 3 Xrotation Yrotation Zrotation
		JOINT LeftKnee
		{
			OFFSET 0.000000 -40.869801 0.001200
			CHANNELS 3 Xrotation Yrotation Zrotation
			JOINT LeftAnkle
			{
				OFFSET 0.000000 -39.717899 0.002100
				CHANNELS 3 Xrotation Yrotation Zrotation
				JOINT LeftToe
				{
					OFFSET 0.000000 -4.965400 11.033500
					CHANNELS 3 Xrotation Yrotation Zrotation
					End Site
					{
						OFFSET 0.000000 0.000000 0.000000
					}
				}
			}
		}
	}
}
MOTION
Frames: 12
Frame Time: 0.032
0.0 0.0 0.0 -178.342236 24.253134 179.119334 -2.556834 3.648089 1.693251 3.557686 6.910280 -1.860899 -1.269280 0.867081 0.434548 2.706572 -1.316170 -0.112386 18.487920 1.221354 1.717885 -2.144255 2.992993 -1.433370 10.314589 2.930876 2.332873 -14.401896 -25.390892 -10.678784 -111.036302 -28.253557 -9.289388 -13.924826 -8.363992 -31.663203 9.043746 0.257082 -2.421755 -9.595215 36.455848 -1.521966 -89.948414 34.959316 -9.572753 6.295301 10.046644 7.627073 -72.711742 -4.681783 -5.350238 76.562206 -6.908054 -1.471269 -8.292715 -4.275437 -2.406154 0.676422 0.526614 0.532411 -75.067891 5.541281 22.724360 66.902523 17.139144 -0.157540 -13.966772 -18.019188 -1.624964 0.002609 0.824095 -0.586258
0.0 0.0 0.0 -178.066597 24.219072 179.317642 -2.369627 3.690734 1.434266 3.646129 6.967905 -1.606876 -1.156058 0.914131 0.760858 2.819410 -1.264319 0.161459 18.592011 1.242628 1.461650 -2.032326 3.021307 -1.708953 10.432797 2.960432 2.052704 -14.309355 -25.394746 -10.936643 -111.136972 -28.472330 -9.180392 -13.825754 -8.338490 -31.355694 9.123251 0.302371 -2.139723 -9.603976 36.514181 -1.262157 -90.010419 35.152019 -9.807937 6.427693 10.121618 7.380218 -72.694680 -4.602999 -5.497614 76.488584 -6.950933 -1.682750 -8.196345 -4.221846 -2.644894 0.780212 0.566074 0.279347 -75.042332 5.425478 22.896800 66.913369 17.073858 -0.350890 -13.812477 -18.028196 -1.326788 0.107353 0.866523 -0.559417
0.0 0.0 0.0 -177.822008 24.334501 179.346984 -2.148546 3.707881 1.374538 3.912491 6.999229 -1.620477 -0.900929 0.945821 0.778273 3.083797 -1.231576 0.158488 18.842308 1.306911 1.412527 -1.773127 3.034761 -1.744740 10.684681 3.029086 2.050706 -14.130187 -25.441859 -10.986623 -111.138461 -28.546487 -9.399488 -13.583258 -8.383414 -31.408471 9.403753 0.376568 -2.134280 -9.375006 36.562160 -1.229831 -89.896696 35.092723 -9.962322 6.665373 10.146346 7.325059 -72.563465 -4.694342 -5.634079 76.639606 -6.842930 -1.813528 -7.933141 -4.217580 -2.688162 1.034096 0.580573 0.237379 -74.874077 5.328265 22.883446 67.065518 17.185183 -0.449831 -13.571831 -18.052772 -1.352835 0.370761 0.877685 -0.590993
0.0 0.0 0.0 -178.042404 24.296513 179.381149 -2.495709 3.636026 1.269496 3.662140 6.908658 -1.698954 -1.147715 0.824066 0.697608 2.813336 -1.349079 0.045797 18.595704 1.115192 1.316805 -1.976214 2.958322 -1.750455 10.473591 2.807087 2.037535 -14.193517 -25.534920 -10.919543 -111.386800 -28.548662 -9.436498 -13.982144 -8.384885 -31.451327 9.209308 0.205965 -2.240506 -9.438134 36.463153 -1.484665 -89.981670 35.120577 -9.956948 6.486643 10.064860 7.352372 -72.799790 -4.597329 -5.678989 76.495503 -7.027723 -1.778757 -8.218644 -4.348067 -2.798453 0.837547 0.515090 0.229554 -75.080315 5.418631 22.884854 66.916313 16.940189 -0.496363 -13.803902 -18.049700 -1.331552 0.175631 0.818665 -0.629434
0.0 0.0 0.0 -178.395225 24.285760 179.249176 -2.750808 3.556654 1.460333 3.539328 6.958650 -1.819040 -1.311454 0.869299 0.515457 2.674874 -1.342986 -0.090148 18.452687 1.189419 1.540483 -2.200457 2.955431 -1.644926 10.255586 2.910013 2.219015 -14.482357 -25.517903 -10.956895 -111.291382 -28.249357 -9.436787 -14.077933 -8.214902 -31.671143 9.061387 0.290136 -2.366564 -9.661929 36.566842 -1.474344 -90.143279 35.056953 -9.477093 6.268413 10.033445 7.483272 -72.811627 -4.605760 -5.485709 76.481467 -7.065749 -1.598345 -8.334917 -4.277265 -2.584114 0.621355 0.495268 0.324002 -75.174783 5.527463 22.818083 66.801449 17.003411 -0.237874 -14.026366 -18.045391 -1.622568 -0.037990 0.797016 -0.684649
0.0 0.0 0.0 -177.966945 24.330971 179.327750 -2.352525 3.595717 1.343055 3.808943 6.956268 -1.666492 -0.985454 0.872584 0.730965 2.998617 -1.317117 0.092354 18.727407 1.225169 1.437129 -1.913487 2.943742 -1.711572 10.551492 2.931597 2.164399 -14.257883 -25.548616 -10.965537 -111.271623 -28.514416 -9.426305 -13.851526 -8.302809 -31.425816 9.306903 0.284806 -2.190191 -9.424816 36.490012 -1.323224 -89.981342 34.984407 -9.824159 6.517872 10.047741 7.389076 -72.634827 -4.703384 -5.613846 76.595346 -6.978419 -1.774183 -8.061626 -4.289640 -2.658140 0.900551 0.492251 0.261212 -74.929135 5.351298 22.877925 67.012980 17.069298 -0.419220 -13.727472 -18.081910 -1.428029 0.245028 0.790611 -0.625430
0.0 0.0 0.0 -178.219402 24.227169 179.270636 -2.429262 3.632466 1.652786 3.598703 6.992121 -1.720572 -1.224621 0.886623 0.597757 2.785885 -1.325193 -0.021703 18.487792 1.240235 1.667342 -2.110461 3.013443 -1.465152 10.242827 2.940583 2.358266 -14.283488 -25.401089 -10.684955 -111.301382 -28.238060 -9.470956 -14.073130 -8.078411 -31.536698 9.097686 0.279952 -2.257297 -9.727263 36.495661 -1.309221 -90.213767 34.918116 -9.432566 6.309905 10.170871 7.687372 -72.733892 -4.701431 -5.451809 76.555786 -6.842052 -1.527650 -8.297930 -4.267465 -2.439957 0.728131 0.571762 0.505996 -75.063554 5.446758 22.767107 66.925923 17.080729 -0.158991 -13.879821 -17.953386 -1.482568 0.070410 0.873519 -0.518671
0.0 0.0 0.0 -178.045697 24.269795 179.434165 -2.385837 3.565461 1.357730 3.597598 6.897079 -1.501452 -1.184801 0.767939 0.919432 2.800130 -1.409593 0.210268 18.514595 1.081951 1.446391 -2.062824 2.902486 -1.603789 10.338949 2.765086 2.258794 -14.278490 -25.614890 -10.733851 -111.528076 -28.598702 -9.419022 -14.218400 -8.255639 -31.278718 9.139846 0.148005 -2.043126 -9.583627 36.398071 -1.274749 -90.186023 34.983232 -9.742316 6.342278 10.057726 7.547810 -72.845859 -4.700623 -5.619901 76.423888 -7.040081 -1.692377 -8.299067 -4.400807 -2.657123 0.769032 0.466577 0.368419 -75.094310 5.281391 22.993857 66.939727 16.897637 -0.404110 -13.879858 -18.094336 -1.174941 0.095059 0.769522 -0.468698
0.0 0.0 0.0 -178.200059 24.219318 179.370084 -2.492573 3.584520 1.510765 3.573017 6.992459 -1.627785 -1.230205 0.853793 0.714006 2.780072 -1.349478 0.057917 18.470423 1.182412 1.563328 -2.132801 2.978299 -1.588535 10.243271 2.872824 2.252191 -14.295290 -25.516111 -10.800796 -111.470702 -28.313796 -9.518965 -14.200121 -8.065804 -31.449521 9.100677 0.276069 -2.155672 -9.784167 36.538940 -1.237342 -90.348854 34.973437 -9.438444 6.282042 10.146269 7.622310 -72.765953 -4.677687 -5.527235 76.487450 -6.939272 -1.610575 -8.315818 -4.292435 -2.539962 0.710713 0.533090 0.385058 -75.103667 5.397612 22.806729 66.871554 16.978109 -0.239167 -13.885717 -17.990713 -1.386725 0.051865 0.836952 -0.526466
0.0 0.0 0.0 -178.148792 24.267809 179.169700 -2.346008 3.504203 1.667761 3.719499 6.902383 -1.724910 -1.054061 0.768917 0.631526 2.929317 -1.426979 -0.034794 18.615472 1.151734 1.756903 -2.013163 2.858852 -1.338785 10.411816 2.823629 2.591678 -14.146622 -25.701841 -10.480696 -111.512216 -28.377162 -9.738753 -14.160732 -8.132778 -31.584605 9.272571 0.166703 -2.291063 -9.445273 36.445510 -1.493115 -90.247078 34.707941 -9.362220 6.350310 10.011904 7.848539 -72.679223 -4.885601 -5.464495 76.627810 -6.884018 -1.540991 -8.174463 -4.427215 -2.337617 0.834742 0.423114 0.607859 -74.945890 5.349191 22.801190 67.031804 17.073895 -0.196842 -13.823477 -18.096112 -1.496336 0.178656 0.722232 -0.497456
0.0 0.0 0.0 -177.967327 24.311346 179.327354 -2.262917 3.663185 1.574592 3.774690 7.036159 -1.769915 -0.996068 0.905263 0.554136 3.000376 -1.277953 -0.083073 18.660639 1.265191 1.569875 -1.902637 3.045205 -1.488930 10.435598 2.940534 2.289333 -14.029803 -25.441546 -10.615177 -111.533048 -28.195489 -9.761085 -14.049962 -7.933315 -31.569404 9.260035 0.306881 -2.305833 -9.493881 36.524519 -1.475682 -90.247727 34.856661 -9.561870 6.470891 10.207868 7.732992 -72.607616 -4.697237 -5.587248 76.686762 -6.695892 -1.654607 -8.127345 -4.261796 -2.505681 0.946792 0.625054 0.463540 -74.908515 5.466410 22.642658 67.071775 17.124744 -0.298846 -13.644375 -17.868731 -1.462756 0.298540 0.923363 -0.547558
0.0 0.0 0.0 -178.069848 24.320499 179.364948 -2.458728 3.484818 1.359778 3.713413 6.931916 -1.669759 -1.078654 0.795678 0.730488 2.905402 -1.373739 0.021525 18.589533 1.126598 1.482740 -2.010362 2.886059 -1.582373 10.406470 2.822655 2.319973 -14.277758 -25.665862 -10.731509 -111.728767 -28.324569 -9.737073 -14.267114 -8.072409 -31.486547 9.288288 0.238742 -2.185952 -9.484793 36.469344 -1.437795 -90.321131 34.870721 -9.524070 6.359366 10.005197 7.661930 -72.760038 -4.738285 -5.639516 76.556537 -7.004565 -1.708669 -8.206492 -4.375863 -2.607756 0.824776 0.450735 0.359201 -75.011610 5.333041 22.856333 66.981739 16.940572 -0.375902 -13.806524 -18.060603 -1.403937 0.177354 0.753157 -0.576723
